<?xml version="1.0" encoding="UTF-8"?>
<svg id="_Слой_1" data-name="Слой 1" xmlns="http://www.w3.org/2000/svg" viewBox="0 0 543.39 164.8">
  <defs>
    <style>
      .cls-1 {
        fill: #84dccf;
      }

      .cls-2 {
        fill: #22181c;
      }

      .cls-3 {
        fill: #ef626c;
      }

      .cls-4 {
        fill: #fea82f;
      }
    </style>
  </defs>
  <g>
    <path class="cls-2" d="m224.85,17.22c2.37,5.14,4.57,9.68,6.62,13.62,2.46,4.71,4.38,8.63,5.75,11.75,1.37,3.12,2.97,6.2,4.8,9.25,4.86-8.05,10.49-19.59,16.89-34.62l13.99.04c.49.07.74.29.74.65s-.28.57-.84.61c-2.48.21-4.14.71-4.97,1.49-.83.79-1.35,2.1-1.55,3.96-.2,1.85-.39,5.3-.58,10.34-.19,5.04-.28,9.23-.28,12.59,0,6.45.05,10.2.14,11.27.09,1.07.49,1.92,1.2,2.55s2.07,1.09,4.11,1.37c.59.09.88.32.88.67s-.36.53-1.09.53l-13.68-.04h-3.59c-.8,0-1.2-.19-1.2-.56,0-.33.27-.53.81-.6,1.97-.26,3.28-.62,3.92-1.09.64-.47,1.12-1.31,1.44-2.52s.47-4.22.47-9.02l.67-16.89.35-8.34c0-.63-.09-.95-.28-.95-.28,0-.52.19-.7.56l-6.97,13.76c-4.46,8.8-7.19,14.42-8.2,16.89l-2.18,5.31c-.68,1.62-1.09,2.5-1.23,2.66s-.3.23-.49.23c-.28,0-.52-.3-.7-.91-.42-1.45-2.59-6.07-6.51-13.86-2.04-4.39-4.49-9.39-7.34-15.02-2.85-5.63-4.39-8.57-4.63-8.81-.24-.25-.41-.37-.53-.37-.24,0-.35.29-.35.88l-.39,21.3-.11,7.03c0,3.73.51,6.16,1.53,7.31s2.48,1.72,4.38,1.72c1.22,0,1.83.26,1.83.77,0,.38-.29.56-.88.56l-.74-.04-2.29.04-4.96-.04c-2.16,0-4.93.12-8.33.35-.28-.19-.42-.37-.42-.56,0-.47.41-.71,1.23-.74,2.34-.07,4.07-.84,5.17-2.32,1.1-1.48,1.65-4.79,1.65-9.92l-.07-6.19.49-15.69c0-3.66-.54-6.16-1.62-7.51-1.08-1.35-2.66-2.15-4.75-2.41-.89-.11-1.34-.35-1.34-.72,0-.41.33-.62.98-.62.35,0,.77.01,1.27.04l12.45.28Z"/>
    <path class="cls-2" d="m314.95,17.65c.68,2.62,1.35,6.31,2,11.04-.11.19-.24.28-.38.28-.16,0-.33-.09-.52-.28-1.62-2.6-3.17-4.58-4.64-5.94-1.48-1.36-2.96-2.33-4.45-2.9-1.49-.57-4.05-.86-7.69-.86-3.42,0-6.13.2-8.13.6-.19.23-.28.67-.28,1.3,0,.16-.02.46-.07.88-.23,1.87-.35,6.95-.35,15.23,0,.35.02.84.07,1.47,1.78.07,3,.11,3.66.11,2.96,0,5.1-.44,6.42-1.32s2.48-2.78,3.47-5.7c.16-.49.4-.74.7-.74.44,0,.66.34.66,1.02l-.14,1.41c-.19,1.86-.28,3.77-.28,5.74,0,3.19.06,6.07.18,8.63,0,.8-.21,1.2-.64,1.2-.32,0-.53-.28-.65-.84-.49-2.77-1.53-4.76-3.1-5.98-1.58-1.22-5-1.83-10.26-1.83-.07,1.71-.11,4.48-.11,8.3,0,4.95.18,8.09.53,9.42s1.2,2.4,2.53,3.18c1.34.79,3.6,1.18,6.79,1.18,9.12,0,15.01-3.14,17.66-9.42.32-.77.66-1.16,1.01-1.16.37,0,.56.26.56.77,0,.28-.06.59-.18.91-.14.45-.48,2.11-1.02,4.99-.12.61-.56,2.44-1.34,5.48l-14.73-.04c-2.11,0-5.21-.09-9.3-.26s-7.71-.27-10.86-.28c-3.15-.01-4.8-.08-4.94-.19-.14-.12-.21-.25-.21-.39,0-.47.39-.7,1.16-.7,2.6,0,4.31-.69,5.13-2.07.82-1.38,1.23-4.74,1.23-10.08l-.04-7.2.11-6.74c0-1.36-.08-3.93-.23-7.71-.15-3.78-.29-5.94-.42-6.48-.13-.54-.49-1.07-1.09-1.6s-1.92-1.06-3.96-1.6c-.61-.16-.91-.42-.91-.77,0-.42.41-.63,1.23-.63l7.17.39c2.53.12,8.75.18,18.67.18,6.52,0,9.84.01,9.98.04Z"/>
    <path class="cls-2" d="m338.64,17.26l7.24-.14c9.16,0,16.09,2.23,20.78,6.68,4.69,4.45,7.03,10.07,7.03,16.84,0,4.8-1.12,8.98-3.38,12.53s-5.06,6.23-8.44,8.03c-3.38,1.81-7.88,2.71-13.5,2.71-1.27,0-2.87-.07-4.82-.21-3.47-.28-5.41-.42-5.84-.42-7.69,0-12.21.08-13.57.25-.77,0-1.16-.2-1.16-.59,0-.27.14-.46.42-.55.28-.09,1.15-.23,2.6-.41,1.88-.26,3.19-1.01,3.96-2.25.76-1.24,1.24-5.11,1.42-11.61l.56-18.61c0-2.16-.15-4.24-.44-6.25s-.75-3.3-1.37-3.87c-.62-.57-1.61-.97-2.97-1.18-.98-.14-1.48-.41-1.48-.81,0-.49.25-.74.74-.74s1.9.1,4.31.3c2.4.2,5.03.3,7.89.3Zm-1.23,33.96c0,3.09.21,5.3.62,6.63.41,1.32,1.29,2.41,2.64,3.27,1.35.86,3.51,1.28,6.49,1.28,4.27,0,7.72-1.01,10.37-3.02,2.65-2.02,4.72-4.7,6.21-8.05,1.49-3.35,2.23-6.91,2.23-10.69,0-5.58-1.7-10.63-5.1-15.15-3.4-4.52-8.68-6.79-15.86-6.79-3.19,0-5.04.11-5.57.32s-.79.83-.79,1.86c0,.91-.08,2.54-.25,4.89-.23,3.42-.39,6.09-.46,8.02l-.32,9.67c-.14,4.52-.21,7.11-.21,7.77Z"/>
    <path class="cls-2" d="m381.68,16.87l6.41.14,9.83-.14c1.17,0,1.76.23,1.76.7,0,.35-.32.57-.95.67-2.6.33-4.22,1.27-4.87,2.81s-.97,7.27-.97,17.16c0,3.63.09,7.72.28,12.27.19,4.55.4,7.27.63,8.16.23.89.68,1.62,1.34,2.18s1.88.96,3.66,1.2c.59.07.88.29.88.67,0,.42-.27.63-.81.63l-8.74-.07-7.43.11c-.82,0-1.23-.23-1.23-.7,0-.49.33-.74.98-.74,2.18-.05,3.46-.77,3.83-2.18s.56-5.89.56-13.46-.06-13.23-.19-17.75c-.13-4.52-.51-7.29-1.14-8.3-.63-1.01-1.83-1.64-3.59-1.9-.66-.12-.98-.39-.98-.81s.25-.63.74-.63Z"/>
    <path class="cls-2" d="m442.95,20.14c1.29-1.15,2.03-1.92,2.22-2.32.23-.56.57-.84,1.02-.84.47,0,.73.42.77,1.27l.77,12.27c0,.7-.03,1.13-.09,1.28-.06.15-.23.23-.51.23-.38,0-.77-.5-1.2-1.51-1.55-3.74-3.7-6.79-6.47-9.18-2.79-2.37-5.81-3.55-9.07-3.55-2.86,0-5.48.92-7.88,2.76-2.39,1.84-4.25,4.46-5.57,7.88s-1.99,7.07-1.99,10.99c0,6.66,1.83,12.06,5.5,16.22,3.67,4.16,7.77,6.24,12.29,6.24,3.07,0,5.9-.97,8.47-2.92,2.58-1.95,4.53-4.2,5.84-6.75.35-.7.71-1.05,1.09-1.05.52,0,.77.28.77.84,0,.68-.89,2.17-2.67,4.46-1.78,2.3-4.12,4.16-7.01,5.59-2.9,1.43-6.01,2.14-9.34,2.14-3.92,0-7.64-1-11.17-2.99-3.53-1.99-6.32-4.75-8.39-8.26-2.06-3.52-3.09-7.64-3.09-12.38s1-8.82,3.01-12.55c2-3.73,4.83-6.62,8.46-8.68,3.64-2.06,7.39-3.09,11.26-3.09,2.06,0,4.18.32,6.33.97,2.16.65,4.36,1.62,6.62,2.94Z"/>
    <path class="cls-2" d="m473.45,16.31h1.62c2.62,5.37,6.23,14.54,10.83,27.53,2.97,8.32,5,13.42,6.11,15.31,1.1,1.89,2.88,2.94,5.32,3.15.78.07,1.16.33,1.16.77,0,.33-.2.49-.6.49l-.49-.04c-2.16-.19-4.9-.28-8.23-.28-5.11,0-8.39.08-9.84.25-.73,0-1.09-.21-1.09-.63,0-.3.27-.49.81-.56,1.99-.19,3.37-.53,4.13-1.02s1.14-1.27,1.14-2.32-.71-3.53-2.14-7.56l-2.07-6.05c-1.22,0-6.67.07-16.35.21-2.44,6.49-3.66,10.59-3.66,12.28,0,1.44.6,2.5,1.81,3.2s2.4,1.08,3.57,1.15c.87.07,1.3.33,1.3.79,0,.18-.14.35-.42.51-3.75-.16-6.01-.25-6.79-.25-3.94,0-6.59.05-7.95.14-.75,0-1.12-.21-1.12-.63,0-.37.33-.61.98-.7,2.7-.35,4.76-2.18,6.19-5.48s3.66-9.25,6.68-17.82c2.77-7.8,5.79-15.28,9.08-22.43Zm-1.4,7.66c-2.18,4.45-4.73,10.92-7.64,19.41,2.41-.12,4.15-.18,5.2-.18l9.88.18c-.87-2.44-2.08-5.67-3.65-9.7-1.92-4.8-3.18-8.04-3.79-9.7Z"/>
    <path class="cls-2" d="m541.14,63.42c-1.15.05-1.81.07-1.97.07-.87,0-2.44-.04-4.71-.12-2.28-.08-7-.12-14.18-.12h-8.94c-.33,0-1.52.06-3.59.18-2.06.12-3.32.18-3.77.18-1.78,0-2.67-.23-2.67-.7,0-.37.35-.57,1.05-.6,2.27-.14,3.86-.63,4.75-1.46.89-.83,1.5-2.03,1.83-3.59s.49-5.78.49-12.65l.04-12.6c0-4.08-.18-6.93-.54-8.55s-1.11-2.86-2.25-3.71c-1.14-.86-2.42-1.34-3.85-1.46-.75-.07-1.12-.32-1.12-.76s.34-.65,1.02-.65c.16,0,.47.01.91.04,3.73.23,8.09.35,13.08.35l6.19-.11c.63,0,.95.23.95.7,0,.42-.34.63-1.02.63-1.66,0-3.05.33-4.17.98-1.11.66-1.85,1.41-2.21,2.27-.36.86-.54,2.53-.54,5.01l-.28,16.63.07,9.28c0,2.88.12,4.76.37,5.62.25.87.76,1.65,1.53,2.34.77.69,2.18,1.04,4.22,1.04.16,0,2.26-.07,6.3-.21,3.21-.44,6.1-2.02,8.65-4.71,2.56-2.69,4.26-5.11,5.1-7.24.26-.61.57-.91.94-.91.4,0,.59.28.59.84,0,.66-.33,3.01-1,7.05s-1.08,6.36-1.25,6.94Z"/>
    <path class="cls-2" d="m247.2,106.54c1.29-1.15,2.03-1.92,2.22-2.32.23-.56.57-.84,1.02-.84.47,0,.73.42.77,1.27l.77,12.27c0,.7-.03,1.13-.09,1.28-.06.15-.23.23-.51.23-.38,0-.77-.5-1.2-1.51-1.55-3.74-3.7-6.79-6.47-9.18-2.79-2.37-5.81-3.55-9.07-3.55-2.86,0-5.48.92-7.88,2.76-2.39,1.84-4.25,4.46-5.57,7.88s-1.99,7.07-1.99,10.99c0,6.66,1.83,12.06,5.5,16.22,3.67,4.16,7.77,6.24,12.29,6.24,3.07,0,5.9-.97,8.47-2.92,2.58-1.95,4.53-4.2,5.84-6.75.35-.7.71-1.05,1.09-1.05.52,0,.77.28.77.84,0,.68-.89,2.17-2.67,4.46-1.78,2.3-4.12,4.16-7.01,5.59-2.9,1.43-6.01,2.14-9.34,2.14-3.92,0-7.64-1-11.17-2.99-3.53-1.99-6.32-4.75-8.39-8.26-2.06-3.52-3.09-7.64-3.09-12.38s1-8.82,3.01-12.55c2-3.73,4.83-6.62,8.46-8.68,3.64-2.06,7.39-3.09,11.26-3.09,2.06,0,4.18.32,6.33.97,2.16.65,4.36,1.62,6.62,2.94Z"/>
    <path class="cls-2" d="m295.89,149.82c-1.15.05-1.81.07-1.97.07-.87,0-2.44-.04-4.71-.12-2.28-.08-7-.12-14.18-.12h-8.94c-.33,0-1.52.06-3.59.18-2.06.12-3.32.18-3.77.18-1.78,0-2.67-.23-2.67-.7,0-.37.35-.57,1.05-.6,2.27-.14,3.86-.63,4.75-1.46.89-.83,1.5-2.03,1.83-3.59s.49-5.78.49-12.65l.04-12.6c0-4.08-.18-6.93-.54-8.55s-1.11-2.86-2.25-3.71c-1.14-.86-2.42-1.34-3.85-1.46-.75-.07-1.12-.32-1.12-.76s.34-.65,1.02-.65c.16,0,.47.01.91.04,3.73.23,8.09.35,13.08.35l6.19-.11c.63,0,.95.23.95.7,0,.42-.34.63-1.02.63-1.66,0-3.05.33-4.17.98-1.11.66-1.85,1.41-2.21,2.27-.36.86-.54,2.53-.54,5.01l-.28,16.63.07,9.28c0,2.88.12,4.76.37,5.62.25.87.76,1.65,1.53,2.34.77.69,2.18,1.04,4.22,1.04.16,0,2.26-.07,6.3-.21,3.21-.44,6.1-2.02,8.65-4.71,2.56-2.69,4.26-5.11,5.1-7.24.26-.61.57-.91.94-.91.4,0,.59.28.59.84,0,.66-.33,3.01-1,7.05s-1.08,6.36-1.25,6.94Z"/>
    <path class="cls-2" d="m303.7,103.27l6.41.14,9.83-.14c1.17,0,1.76.23,1.76.7,0,.35-.32.57-.95.67-2.6.33-4.22,1.27-4.87,2.81s-.97,7.27-.97,17.16c0,3.63.09,7.72.28,12.27.19,4.55.4,7.27.63,8.16.23.89.68,1.62,1.34,2.18s1.88.96,3.66,1.2c.59.07.88.29.88.67,0,.42-.27.63-.81.63l-8.74-.07-7.43.11c-.82,0-1.23-.23-1.23-.7,0-.49.33-.74.98-.74,2.18-.05,3.46-.77,3.83-2.18s.56-5.89.56-13.46-.06-13.23-.19-17.75c-.13-4.52-.51-7.29-1.14-8.3-.63-1.01-1.83-1.64-3.59-1.9-.66-.12-.98-.39-.98-.81s.25-.63.74-.63Z"/>
    <path class="cls-2" d="m338.72,103.87c1.41,1.9,3.84,4.84,7.31,8.82l11.25,13.04,10.83,12.52c.23-4.24.35-9.75.35-16.52,0-5.09-.11-8.49-.32-10.21s-.99-3.17-2.34-4.34c-1.35-1.17-3.03-1.76-5.04-1.76-.94,0-1.41-.2-1.41-.6,0-.23.1-.4.3-.51s1.78-.21,4.73-.32,5.44-.16,7.45-.16l4.75.03h.77c.73,0,1.09.21,1.09.62,0,.37-.32.58-.95.65-2.37.26-4.07.87-5.12,1.85-1.04.97-1.66,2.38-1.86,4.2-.2,1.83-.3,7.99-.3,18.47l-.35,18.58c0,.94-.23,1.41-.69,1.41-.12,0-.28-.05-.49-.16-.2-.11-1.25-1.29-3.15-3.55-1.9-2.26-4.24-4.97-7.01-8.14s-4.96-5.73-6.56-7.7c-3.49-4.24-5.7-6.86-6.61-7.84-3.4-3.61-5.4-5.93-6.01-6.96-.4-.7-.76-1.05-1.09-1.05-.26,0-.39.46-.39,1.37l.07,5.45c0,6.91.19,12.43.56,16.56.38,4.13.77,6.54,1.18,7.26.41.72,1.12,1.44,2.14,2.16,1.02.73,2.1,1.09,3.25,1.09,1.55,0,2.32.28,2.32.84,0,.42-.43.63-1.3.63l-16.91-.04c-.8,0-1.2-.2-1.2-.6,0-.47.39-.7,1.16-.7,2.88,0,4.8-.64,5.77-1.92.96-1.28,1.44-3.99,1.44-8.14l-.29-12.34c0-7.29-.19-11.58-.59-12.88s-1.29-2.88-2.69-4.75-2.98-2.91-4.76-3.15c-.8-.09-1.2-.3-1.2-.63,0-.44.52-.67,1.55-.67l10.34.07Z"/>
    <path class="cls-2" d="m384.7,103.27l6.41.14,9.83-.14c1.17,0,1.76.23,1.76.7,0,.35-.32.57-.95.67-2.6.33-4.22,1.27-4.87,2.81s-.97,7.27-.97,17.16c0,3.63.09,7.72.28,12.27.19,4.55.4,7.27.63,8.16.23.89.68,1.62,1.34,2.18s1.88.96,3.66,1.2c.59.07.88.29.88.67,0,.42-.27.63-.81.63l-8.74-.07-7.43.11c-.82,0-1.23-.23-1.23-.7,0-.49.33-.74.98-.74,2.18-.05,3.46-.77,3.83-2.18s.56-5.89.56-13.46-.06-13.23-.19-17.75c-.13-4.52-.51-7.29-1.14-8.3-.63-1.01-1.83-1.64-3.59-1.9-.66-.12-.98-.39-.98-.81s.25-.63.74-.63Z"/>
    <path class="cls-2" d="m445.97,106.54c1.29-1.15,2.03-1.92,2.22-2.32.23-.56.57-.84,1.02-.84.47,0,.73.42.77,1.27l.77,12.27c0,.7-.03,1.13-.09,1.28-.06.15-.23.23-.51.23-.38,0-.77-.5-1.2-1.51-1.55-3.74-3.7-6.79-6.47-9.18-2.79-2.37-5.81-3.55-9.07-3.55-2.86,0-5.48.92-7.88,2.76-2.39,1.84-4.25,4.46-5.57,7.88s-1.99,7.07-1.99,10.99c0,6.66,1.83,12.06,5.5,16.22,3.67,4.16,7.77,6.24,12.29,6.24,3.07,0,5.9-.97,8.47-2.92,2.58-1.95,4.53-4.2,5.84-6.75.35-.7.71-1.05,1.09-1.05.52,0,.77.28.77.84,0,.68-.89,2.17-2.67,4.46-1.78,2.3-4.12,4.16-7.01,5.59-2.9,1.43-6.01,2.14-9.34,2.14-3.92,0-7.64-1-11.17-2.99-3.53-1.99-6.32-4.75-8.39-8.26-2.06-3.52-3.09-7.64-3.09-12.38s1-8.82,3.01-12.55c2-3.73,4.83-6.62,8.46-8.68,3.64-2.06,7.39-3.09,11.26-3.09,2.06,0,4.18.32,6.33.97,2.16.65,4.36,1.62,6.62,2.94Z"/>
  </g>
  <g>
    <circle class="cls-3" cx="145.6" cy="82.9" r="17.5"/>
    <circle class="cls-3" cx="145.6" cy="44.4" r="14"/>
    <circle class="cls-1" cx="145.6" cy="121.15" r="14"/>
    <circle class="cls-3" cx="145.6" cy="17.75" r="7"/>
    <circle class="cls-4" cx="145.6" cy="147.05" r="7"/>
    <circle class="cls-1" cx="120.64" cy="17.75" r="14"/>
    <circle class="cls-1" cx="120.64" cy="147.05" r="14"/>
    <circle class="cls-3" cx="113.82" cy="49.4" r="7"/>
    <circle class="cls-4" cx="113.82" cy="115.4" r="7"/>
    <circle class="cls-4" cx="108.82" cy="83.4" r="14"/>
    <circle class="cls-3" cx="81.39" cy="17.75" r="17.5"/>
    <circle class="cls-3" cx="81.39" cy="147.05" r="17.5"/>
    <circle class="cls-4" cx="80.82" cy="56.4" r="14"/>
    <circle class="cls-1" cx="80.82" cy="110.4" r="14"/>
    <circle class="cls-1" cx="80.82" cy="83.4" r="7"/>
    <circle class="cls-3" cx="53.82" cy="83.4" r="14"/>
    <circle class="cls-4" cx="48.82" cy="49.4" r="7"/>
    <circle class="cls-3" cx="48.82" cy="115.4" r="7"/>
    <circle class="cls-4" cx="42.89" cy="147.05" r="14"/>
    <circle class="cls-1" cx="42.82" cy="17.4" r="14"/>
    <circle class="cls-4" cx="17.75" cy="82.4" r="17.5"/>
    <circle class="cls-3" cx="17.75" cy="43.9" r="14"/>
    <circle class="cls-1" cx="17.75" cy="120.65" r="14"/>
    <circle class="cls-4" cx="17.75" cy="17.75" r="7"/>
    <circle class="cls-1" cx="17.75" cy="147.05" r="7"/>
  </g>
</svg>